{
  "source": "C:\\Users\\Peter\\Desktop\\stuff\\MIUN\\quantitative_research\\video_compression\\videos\\BVI-HD\\BVI-HD_CDVL_videos\\ORIG\\Music_1920x1080_30fps.mp4",
  "output": "C:\\Users\\Peter\\Desktop\\stuff\\MIUN\\quantitative_research\\video_compression\\compressed_videos\\BVI-HD\\av1\\1\\Music_1920x1080_30fps_av1.mkv",
  "codec": "av1",
  "ok": "Input #0, mov,mp4,m4a,3gp,3g2,mj2, from 'C:\\Users\\Peter\\Desktop\\stuff\\MIUN\\quantitative_research\\video_compression\\videos\\BVI-HD\\BVI-HD_CDVL_videos\\ORIG\\Music_1920x1080_30fps.mp4':\n  Metadata:\n    major_brand     : isom\n    minor_version   : 512\n    compatible_brands: isomiso2avc1mp41\n    encoder         : Lavf54.28.101\n  Duration: 00:00:05.00, start: 0.000000, bitrate: 192710 kb/s\n  Stream #0:0[0x1](und): Video: h264 (High 4:4:4 Predictive) (avc1 / 0x31637661), yuv420p(progressive), 1920x1080, 192707 kb/s, 30 fps, 30 tbr, 30 tbn (default)\n    Metadata:\n      handler_name    : VideoHandler\n      vendor_id       : [0][0][0][0]\n[out#0/matroska @ 000002139b588f40] Codec AVOption b:a (set bitrate (in bits/s)) has not been used for any stream. The most likely reason is either wrong type (e.g. a video option with no video streams) or that it is a private option of some decoder which was not actually used for any stream.\nStream mapping:\n  Stream #0:0 -> #0:0 (h264 (native) -> av1 (libsvtav1))\nPress [q] to stop, [?] for help\nSvt[info]: -------------------------------------------\nSvt[info]: SVT [version]:\tSVT-AV1 Encoder Lib v3.1.0-19-g6ecfe8ec\nSvt[info]: SVT [build]  :\tGCC 15.2.0\t 64 bit\nSvt[info]: LIB Build date: Aug 17 2025 11:37:13\nSvt[info]: -------------------------------------------\nSvt[info]: Level of Parallelism: 5\nSvt[info]: Number of PPCS 93\nSvt[info]: [asm level on system : up to avx2]\nSvt[info]: [asm level selected : up to avx2]\nSvt[info]: -------------------------------------------\nSvt[info]: SVT [config]: main profile\ttier (auto)\tlevel (auto)\nSvt[info]: SVT [config]: width / height / fps numerator / fps denominator \t\t: 1920 / 1080 / 30 / 1\nSvt[info]: SVT [config]: bit-depth / color format \t\t\t\t\t: 8 / YUV420\nSvt[info]: SVT [config]: preset / tune / pred struct \t\t\t\t\t: 4 / PSNR / random access\nSvt[info]: SVT [config]: gop size / mini-gop size / key-frame type \t\t\t: 161 / 16 / key frame\nSvt[info]: SVT [config]: BRC mode / target bitrate (kbps)\t\t\t\t: VBR / 1000 \nSvt[info]: SVT [config]: AQ mode / Variance Boost \t\t\t\t\t: 2 / 0\nSvt[info]: SVT [config]: sharpness / luminance-based QP bias \t\t\t\t: 0 / 0\nSvt[info]: SVT [config]: QP scale compress strength \t\t\t\t\t: 0\nSvt[info]: -------------------------------------------\nOutput #0, matroska, to 'C:\\Users\\Peter\\Desktop\\stuff\\MIUN\\quantitative_research\\video_compression\\compressed_videos\\BVI-HD\\av1\\1\\Music_1920x1080_30fps_av1.mkv':\n  Metadata:\n    major_brand     : isom\n    minor_version   : 512\n    compatible_brands: isomiso2avc1mp41\n    encoder         : Lavf62.3.100\n  Stream #0:0(und): Video: av1 (AV01 / 0x31305641), yuv420p(tv, progressive), 1920x1080, q=2-31, 1000 kb/s, 30 fps, 1k tbn (default)\n    Metadata:\n      encoder         : Lavc62.11.100 libsvtav1\n      handler_name    : VideoHandler\n      vendor_id       : [0][0][0][0]\n    Side data:\n      cpb: bitrate max/min/avg: 0/0/1000000 buffer size: 1000000 vbv_delay: N/A\nframe=    0 fps=0.0 q=0.0 size=       0KiB time=N/A bitrate=N/A speed=N/A elapsed=0:00:01.06    \nframe=    0 fps=0.0 q=0.0 size=       0KiB time=N/A bitrate=N/A speed=N/A elapsed=0:00:01.61    \nframe=    0 fps=0.0 q=0.0 size=       0KiB time=N/A bitrate=N/A speed=N/A elapsed=0:00:02.18    \nframe=    0 fps=0.0 q=0.0 size=       0KiB time=N/A bitrate=N/A speed=N/A elapsed=0:00:02.72    \nframe=    1 fps=0.3 q=30.0 size=       1KiB time=00:00:00.00 bitrate=N/A speed=   0x elapsed=0:00:03.27    \nframe=    6 fps=1.6 q=49.0 size=       1KiB time=00:00:00.16 bitrate=  34.2kbits/s speed=0.0436x elapsed=0:00:03.81    \nframe=    9 fps=2.1 q=42.0 size=       1KiB time=00:00:00.26 bitrate=  21.4kbits/s speed=0.0611x elapsed=0:00:04.36    \nframe=   12 fps=2.4 q=45.0 size=       1KiB time=00:00:00.36 bitrate=  15.6kbits/s speed=0.0738x elapsed=0:00:04.96    \nframe=   18 fps=3.2 q=44.0 size=       1KiB time=00:00:00.56 bitrate=  10.1kbits/s speed=0.102x elapsed=0:00:05.56    \nframe=   22 fps=3.6 q=45.0 size=       1KiB time=00:00:00.70 bitrate=   8.1kbits/s speed=0.115x elapsed=0:00:06.11    \nframe=   25 fps=3.8 q=41.0 size=       1KiB time=00:00:00.80 bitrate=   7.1kbits/s speed=0.12x elapsed=0:00:06.65    \nframe=   29 fps=4.0 q=42.0 size=       1KiB time=00:00:00.93 bitrate=   6.1kbits/s speed=0.128x elapsed=0:00:07.26    \nframe=   32 fps=4.1 q=43.0 size=       1KiB time=00:00:01.03 bitrate=   5.5kbits/s speed=0.131x elapsed=0:00:07.87    \nframe=   36 fps=4.3 q=48.0 size=       1KiB time=00:00:01.16 bitrate=   4.9kbits/s speed=0.138x elapsed=0:00:08.46    \nframe=   39 fps=4.3 q=44.0 size=       1KiB time=00:00:01.26 bitrate=   4.5kbits/s speed=0.14x elapsed=0:00:09.06    \nframe=   43 fps=4.5 q=44.0 size=       1KiB time=00:00:01.40 bitrate=   4.1kbits/s speed=0.145x elapsed=0:00:09.65    \nframe=   47 fps=4.6 q=44.0 size=       1KiB time=00:00:01.53 bitrate=   3.7kbits/s speed=0.15x elapsed=0:00:10.19    \nframe=   52 fps=4.9 q=46.0 size=       1KiB time=00:00:01.70 bitrate=   3.4kbits/s speed=0.159x elapsed=0:00:10.71    \nframe=   57 fps=5.1 q=39.0 size=       1KiB time=00:00:01.86 bitrate=   3.1kbits/s speed=0.166x elapsed=0:00:11.22    \nframe=   61 fps=5.2 q=41.0 size=       1KiB time=00:00:02.00 bitrate=   2.9kbits/s speed=0.17x elapsed=0:00:11.77    \nframe=   65 fps=5.3 q=23.0 size=       1KiB time=00:00:02.13 bitrate=   2.7kbits/s speed=0.173x elapsed=0:00:12.29    \nframe=   69 fps=5.4 q=43.0 size=       1KiB time=00:00:02.26 bitrate=   2.5kbits/s speed=0.177x elapsed=0:00:12.82    \nframe=   73 fps=5.5 q=39.0 size=       1KiB time=00:00:02.40 bitrate=   2.4kbits/s speed=0.18x elapsed=0:00:13.35    \nframe=   77 fps=5.5 q=42.0 size=       1KiB time=00:00:02.53 bitrate=   2.3kbits/s speed=0.182x elapsed=0:00:13.88    \nframe=   81 fps=5.6 q=26.0 size=       1KiB time=00:00:02.66 bitrate=   2.1kbits/s speed=0.185x elapsed=0:00:14.40    \nframe=   89 fps=6.0 q=41.0 size=       1KiB time=00:00:02.93 bitrate=   1.9kbits/s speed=0.197x elapsed=0:00:14.92    \nframe=   89 fps=5.8 q=41.0 size=       1KiB time=00:00:02.93 bitrate=   1.9kbits/s speed=0.19x elapsed=0:00:15.44    \nframe=   97 fps=6.1 q=29.0 size=       1KiB time=00:00:03.20 bitrate=   1.8kbits/s speed=0.201x elapsed=0:00:15.95    \nframe=  101 fps=6.1 q=45.0 size=       1KiB time=00:00:03.33 bitrate=   1.7kbits/s speed=0.202x elapsed=0:00:16.47    \nframe=  105 fps=6.2 q=41.0 size=       1KiB time=00:00:03.46 bitrate=   1.6kbits/s speed=0.204x elapsed=0:00:17.01    \nframe=  109 fps=6.2 q=42.0 size=       1KiB time=00:00:03.60 bitrate=   1.6kbits/s speed=0.205x elapsed=0:00:17.55    \nframe=  115 fps=6.4 q=47.0 size=       1KiB time=00:00:03.80 bitrate=   1.5kbits/s speed=0.21x elapsed=0:00:18.09    \nframe=  121 fps=6.5 q=41.0 size=       1KiB time=00:00:04.00 bitrate=   1.4kbits/s speed=0.215x elapsed=0:00:18.60    \nframe=  125 fps=6.5 q=47.0 size=       1KiB time=00:00:04.13 bitrate=   1.4kbits/s speed=0.216x elapsed=0:00:19.12    \nframe=  133 fps=6.8 q=50.0 size=       1KiB time=00:00:04.40 bitrate=   1.3kbits/s speed=0.224x elapsed=0:00:19.66    \nframe=  137 fps=6.8 q=47.0 size=       1KiB time=00:00:04.53 bitrate=   1.3kbits/s speed=0.225x elapsed=0:00:20.18    \n[out#0/matroska @ 000002139b588f40] video:611KiB audio:0KiB subtitle:0KiB other streams:0KiB global headers:0KiB muxing overhead: 0.230453%\nframe=  150 fps=7.3 q=50.0 Lsize=     612KiB time=00:00:04.96 bitrate=1009.5kbits/s speed=0.241x elapsed=0:00:20.58    \n",
  "seconds": 21.016574144363403,
  "probe_out": {}
}